<?xml version="1.0" encoding="UTF-8"?>
<!-- Generator: Adobe Illustrator 25.2.1, SVG Export Plug-In . SVG Version: 6.00 Build 0)  -->
<svg xmlns="http://www.w3.org/2000/svg" xmlns:xlink="http://www.w3.org/1999/xlink" version="1.1" id="Capa_1" x="0px" y="0px" viewBox="0 0 512 512" style="enable-background:new 0 0 512 512;" xml:space="preserve" width="512" height="512">
<g>
	<path style="fill:#FFFFFF;" d="M477.561,248.972c-0.445-25.8-12.696-43.477-44.093-48.866   c5.705-48.757,11.241-109.786-9.116-157.554C381.342-46.536,319.32,21.58,311.634,89.169l-45.233-6.328   c-1.274-56.297-72.907-122.403-106.384-50.976c-10.366,22.016-8.97,47.668-4.156,70.782c-2.164,10.971-4.469,22.015-6.354,33.243   c-31.229,14.959-49.451,51.306-42.407,85.49c-78.865,23.359-96.36,116.754-39.095,174.664   c14.639,14.254,31.246,22.204,54.732,27.443c8.928,6.928,18.551,12.934,28.763,17.955c-28.382,76.311,75.627,103.028,76.926,17.531   c33.458,0.27,64.45-12.8,93.21-29.596c47.521-7.896,87.775-42.119,99.615-88.578c9.526-32.094,2.25-71.505,7.503-105.198   c5.037,1.088,9.691,2.357,12.686,4.705c0.83,3.644,0.629,9.266,1.052,12.983C444.871,276.538,480.045,271.483,477.561,248.972z"/>
	<g>
		<g>
			<g>
				<g>
					<path style="fill:#401D3A;" d="M128.366,189.446c19.722,3.075,39.443,6.15,59.165,9.225c4.739,0.739,5.17-6.688,0.473-7.421       c-19.722-3.075-39.444-6.15-59.165-9.225C124.099,181.286,123.668,188.713,128.366,189.446L128.366,189.446z"/>
				</g>
			</g>
		</g>
		<g>
			<path style="fill:#8541A0;" d="M115.469,398.306c30.607,31.734,75.464,49.173,119.468,46.444     c44.005-2.728,86.364-25.574,112.816-60.847"/>
		</g>
		<g>
			<path style="fill:#FFC043;" d="M214.466,465.279c-1.232,19.338-14.255,34.249-29.089,33.304     c-14.833-0.945-25.859-17.388-24.627-36.726c1.232-19.338,14.255-34.249,29.089-33.304     C204.671,429.498,215.697,445.941,214.466,465.279z"/>
		</g>
		<g>
			<path style="fill:#E058A3;" d="M203.269,464.566c-0.719,11.277-8.313,19.972-16.963,19.421     c-8.65-0.551-15.08-10.14-14.361-21.416c0.718-11.277,8.313-19.972,16.963-19.421     C197.558,443.701,203.988,453.289,203.269,464.566z"/>
		</g>
		<g>
			<path style="fill:#FFC043;" d="M412.697,294.396c-0.101,14.175-0.959,28.363-4.907,42.693     c-10.157,36.869-35.976,62.686-72.157,74.431c-21.656,7.03-44.865,7.456-67.621,6.706c-33.885-1.116-67.238-1.032-100.97-3.319     c-28.536-1.935-61.137-5.189-84.064-24.141C61.12,372.7,48.258,344.373,48.58,316.017c0.268-23.603,7.525-46.793,26.463-61.285     c11.897-9.104,25.275-16.261,39.432-21.155c10.521-3.637,31.759-2.797,36.933-14.26c7.536-16.694,7.285-35.591,8.45-53.385     c1.338-20.448,5.74-40.52,9.702-60.576c1.036-5.241-0.59-10.586-1.72-15.807c-3.739-17.262-2.011-35.914,4.999-52.147     c3.979-9.216,15.258-24.082,26.492-22.973c8.378,0.827,16.425,5.053,22.841,10.34c7.733,6.373,14.942,14.175,20.069,22.828     c4.364,7.366,6.422,16.265,8.676,24.455c0.676,2.455,2.835,23.122,2.447,23.068c10.999,1.539,21.997,3.077,32.996,4.616     L412.697,294.396z"/>
		</g>
		<g>
			<g>
				<path style="fill:#F2AC20;" d="M385.436,242.579l-34.837,47.938c-0.847,2.994-1.723,5.982-2.63,8.964      c-8.267,27.185-20.551,55.495-44.916,70.114c-20.762,12.457-46.461,12.617-70.626,11.105      c-53.893-3.372-108.514-13.184-161.382-2.194c-0.072,0.015-0.145,0.032-0.218,0.047c3.663,4.432,7.71,8.543,12.151,12.214      c22.927,18.951,55.528,22.206,84.064,24.141c33.732,2.287,67.084,2.203,100.97,3.319c22.757,0.75,45.965,0.324,67.621-6.706      c36.181-11.745,62-37.562,72.157-74.431c3.935-14.282,4.807-28.426,4.913-42.554L385.436,242.579z"/>
			</g>
		</g>
		<g>
			<path style="fill:#8541A0;" d="M372.584,14.005c-8.419,1.187-15.4,7.63-20.871,14.31c-17.541,21.419-27.256,49.11-26.939,76.794     c-12.807-1.792-25.614-3.583-38.421-5.375c-11.219,22.641-19.432,46.607-21.401,71.677     c-2.949,37.558,10.261,78.015,40.677,100.244c13.276,9.703,28.797,15.379,44.969,18.851l54.93-132.821L372.584,14.005z"/>
		</g>
		<g>
			<g>
				<g>
					<path style="fill:#401D3A;" d="M214.364,320.419c-0.805-0.043-1.405,2.815-3.252,6.819c-1.799,3.985-5.147,9.158-10.442,12.893       c-5.305,3.72-11.306,5.122-15.664,5.467c-4.392,0.384-7.284-0.018-7.517,0.755c-0.228,0.632,2.414,2.436,7.435,3.065       c4.923,0.656,12.342-0.301,18.854-4.867c6.499-4.585,9.909-11.243,10.956-16.098       C215.84,323.515,215.036,320.419,214.364,320.419z"/>
				</g>
			</g>
			<g>
				<g>
					<g>
						<path style="fill:#401D3A;" d="M197.996,227.378c1.489,0.095,3.163-7.144,3.738-16.169c0.575-9.025-0.166-16.418-1.656-16.513        c-1.489-0.095-3.162,7.145-3.737,16.169C195.766,219.89,196.507,227.283,197.996,227.378z"/>
					</g>
				</g>
				<g>
					<g>
						<path style="fill:#401D3A;" d="M304.213,234.145c1.489,0.095,3.162-7.145,3.737-16.17c0.575-9.025-0.166-16.418-1.655-16.513        c-1.489-0.095-3.162,7.144-3.737,16.169C301.983,226.657,302.724,234.05,304.213,234.145z"/>
					</g>
				</g>
			</g>
		</g>
		<g>
			<path style="fill:#E058A3;" d="M146.189,278.967c-8.091-1.919-18.219-3.531-28.634-3.936     c-10.382-0.919-20.633-0.606-28.902,0.271c-23.283,2.47-33.89,20.894-24.426,41.999c5.367,11.969,13.756,22.57,24.171,30.545     c6.543,5.01,14.503,9.94,23.021,10.785c8.767,0.869,18.412-3.371,25.819-7.673c11.343-6.589,21.009-16.04,27.851-27.231     C177.153,303.992,168.969,284.372,146.189,278.967z"/>
		</g>
		<g>
			<g>
				<path style="fill:#C43772;" d="M159.703,331.43c-3.278-3.186-7.655-5.273-12.575-5.587      c-10.956-0.698-20.403,7.617-21.101,18.573c-0.252,3.952,0.683,7.699,2.478,10.919c3.101-1.297,6.064-2.83,8.731-4.379      C145.868,345.943,153.519,339.265,159.703,331.43z"/>
			</g>
			<g>
				<path style="fill:#C43772;" d="M97.174,342.579c0.698-10.955-7.618-20.403-18.573-21.101c-3.964-0.253-7.722,0.688-10.948,2.493      c5.247,9.227,12.315,17.42,20.744,23.874c1.816,1.39,3.75,2.764,5.766,4.057C95.877,349.184,96.956,346.012,97.174,342.579z"/>
			</g>
		</g>
		<path style="fill:#7A3E96;" d="M401.397,31.088c-6.666-8.912-15.865-17.781-26.981-17.256c-0.619,0.029-1.228,0.092-1.832,0.177    c2.29,92.94,3.234,187.328-21.986,276.496c9.756,2.095,19.749,3.389,29.629,4.28c10.673,0.963,21.91,1.337,32.47-0.389    c0.073-10.191-0.243-20.374-0.097-30.595c0.1-7.034,0.428-14.068,1.228-21.06c4.26-36.949,11.068-72.223,10.63-109.735    C424.046,97.665,423.422,60.533,401.397,31.088z"/>
		<path style="fill:#401D3A;" d="M463.666,250.373c-1.372-13.607-2.131-25.759-16.615-31.492    c-18.179-7.195-39.181-9.384-58.668-11.395c-3.659-30.274-28.493-54.679-60.002-56.686c-30.546-1.946-57.541,17.788-65.968,45.935    c-4.573-1.919-9.854-1.727-14.253,0.5c-4.213-29.659-28.795-53.38-59.843-55.358c-35.541-2.264-66.299,24.81-68.563,60.352    c-2.264,35.542,24.81,66.3,60.35,68.564c35.543,2.264,66.301-24.809,68.566-60.351c0.097-1.519,0.121-3.026,0.112-4.526    c0.057-0.051,0.116-0.085,0.172-0.141c3.216-3.212,7.86-3.866,11.701-1.622c-0.398,2.292-0.686,4.625-0.837,6.999    c-2.264,35.542,24.81,66.3,60.35,68.564c35.543,2.264,66.301-24.809,68.566-60.351c0.093-1.454,0.118-2.896,0.114-4.332    c13.826,1.565,27.54,3.725,41.173,6.563c7.769,1.617,15.814,3.588,21.76,9.207c4.823,4.557,3.996,15.067,4.603,21.088    C456.865,256.652,464.143,255.102,463.666,250.373z M241.667,209.995c-2.018,31.68-29.435,55.813-61.116,53.794    c-31.679-2.018-55.812-29.435-53.793-61.115c2.018-31.68,29.435-55.813,61.114-53.794    C219.553,150.898,243.686,178.314,241.667,209.995z M381.731,218.918c-2.018,31.68-29.435,55.813-61.116,53.794    c-31.679-2.018-55.812-29.435-53.793-61.115c2.018-31.68,29.435-55.813,61.114-53.794c28.351,1.806,50.641,23.956,53.57,51.295    c-0.519,1.199-0.428,2.7,0.295,3.832C381.879,214.905,381.859,216.903,381.731,218.918z"/>
		<path style="fill:#381934;" d="M417.901,211.189c-9.86-1.668-19.874-2.709-29.518-3.704c-1.714-14.182-8.075-27.075-17.592-36.982    c-0.249,3.281-0.518,6.559-0.806,9.833c6.264,8.194,10.376,18.077,11.521,28.761c-0.519,1.199-0.428,2.7,0.295,3.832    c0.078,1.975,0.058,3.973-0.07,5.988c-1.142,17.929-10.422,33.435-24.003,43.157c-0.716,3.234-1.459,6.464-2.237,9.686    c18.622-10.327,31.791-29.614,33.243-52.397c0.093-1.454,0.118-2.896,0.114-4.332c9.378,1.062,18.703,2.404,27.988,4.039    C417.191,216.44,417.546,213.813,417.901,211.189z"/>
		<g>
			<path style="fill:#FFF2E3;" d="M134.234,295.082c-0.42,6.597-9.855,11.366-21.073,10.651     c-11.218-0.715-19.972-6.642-19.552-13.239c0.42-6.597,9.855-11.366,21.074-10.651     C125.901,282.558,134.655,288.485,134.234,295.082z"/>
		</g>
		<g>
			<g>
				<path style="fill:#E058A3;" d="M397.564,106.821c0.396-1.969,0.417-4.084,0.343-6.09c-0.583-15.772-4.07-31.433-10.234-45.963      c-1.963-4.627-4.888-9.692-9.839-10.559c-5.201-0.911-9.814,3.292-13.106,7.419c-11.593,14.531-18.62,32.622-20.02,51.15      C362.28,107.157,380.466,109.575,397.564,106.821z"/>
			</g>
			<g>
				<path style="fill:#E058A3;" d="M208.493,93.521c6.298-0.766,12.551-1.807,18.643-3.341c-0.117-1.021-0.299-2.039-0.511-3.022      c-2.92-13.543-8.333-26.545-15.887-38.16c-2.405-3.699-5.709-7.629-10.122-7.619c-4.635,0.01-7.978,4.349-10.192,8.42      c-7.327,13.477-10.627,29.051-9.65,44.353C189.963,95.26,199.493,94.616,208.493,93.521z"/>
			</g>
		</g>
	</g>
</g>















</svg>
